HIERARCHY
ROOT hip
{
  OFFSET 0.00112043 5.09927 -9.65472
  CHANNELS 6 Xposition Yposition Zposition Zrotation Xrotation Yrotation
  JOINT abdomen
  {
    OFFSET 0 -1.186 -1.5018
    CHANNELS 3 Zrotation Xrotation Yrotation
    JOINT abdomen2
    {
      OFFSET 0 9.964 0.2134
      CHANNELS 3 Zrotation Xrotation Yrotation
      JOINT chest
      {
        OFFSET 0 13.134 -3.2573
        CHANNELS 3 Zrotation Xrotation Yrotation
        JOINT neck
        {
          OFFSET 0 20.686 -1.6905
          CHANNELS 3 Zrotation Xrotation Yrotation
          JOINT head
          {
            OFFSET 0 7.238 -0.1237
            CHANNELS 3 Zrotation Xrotation Yrotation
            End Site
            {
              OFFSET 0 0 0
            }
          }
        }
        JOINT lCollar
        {
          OFFSET 1.7069 20.075 5.0056
          CHANNELS 3 Zrotation Xrotation Yrotation
          JOINT lShldr
          {
            OFFSET 13.6458 -0.047 -4.849
            CHANNELS 3 Zrotation Xrotation Yrotation
            JOINT lForeArm
            {
              OFFSET 28.3255 -0.9759 2.2888
              CHANNELS 3 Zrotation Xrotation Yrotation
              JOINT lHand
              {
                OFFSET 22.1583 -0.53 10.8316
                CHANNELS 3 Zrotation Xrotation Yrotation
                JOINT lThumb1
                {
                  OFFSET 0.786 0.112 2.5817
                  CHANNELS 3 Zrotation Xrotation Yrotation
                  JOINT lThumb2
                  {
                    OFFSET 0.3601 -0.878 4.2331
                    CHANNELS 3 Zrotation Xrotation Yrotation
                    JOINT lThumb2_End
                    {
                      OFFSET 1.8127 -1.216 2.2227
                      CHANNELS 3 Zrotation Xrotation Yrotation
                      End Site
                      {
                        OFFSET 0.0181 -0.0122 0.0222
                      }
                    }
                  }
                }
                JOINT lCarpal1
                {
                  OFFSET 0.9571 1.114 1.7695
                  CHANNELS 3 Zrotation Xrotation Yrotation
                  JOINT lIndex1
                  {
                    OFFSET 4.1246 0.487 4.1451
                    CHANNELS 3 Zrotation Xrotation Yrotation
                    JOINT lIndex2
                    {
                      OFFSET 3.4052 -1.454 2.7682
                      CHANNELS 3 Zrotation Xrotation Yrotation
                      JOINT lIndex2_End
                      {
                        OFFSET 1.4531 -1.795 1.2713
                        CHANNELS 3 Zrotation Xrotation Yrotation
                        End Site
                        {
                          OFFSET 0.0145 -0.0179 0.0127
                        }
                      }
                    }
                  }
                  JOINT lMid1
                  {
                    OFFSET 5.6954 0.21 2.1184
                    CHANNELS 3 Zrotation Xrotation Yrotation
                    JOINT lMid2
                    {
                      OFFSET 3.9766 -1.54 2.3863
                      CHANNELS 3 Zrotation Xrotation Yrotation
                      JOINT lMid2_End
                      {
                        OFFSET 1.4042 -1.926 1.125
                        CHANNELS 3 Zrotation Xrotation Yrotation
                        End Site
                        {
                          OFFSET 0.014 -0.0193 0.0113
                        }
                      }
                    }
                  }
                }
                JOINT lCarpal2
                {
                  OFFSET 2.0956 0.66 -0.3894
                  CHANNELS 3 Zrotation Xrotation Yrotation
                  JOINT lRing1
                  {
                    OFFSET 5.0395 -0.09 2.4971
                    CHANNELS 3 Zrotation Xrotation Yrotation
                    JOINT lRing2
                    {
                      OFFSET 3.7921 -1.552 1.4806
                      CHANNELS 3 Zrotation Xrotation Yrotation
                      JOINT lRing2_End
                      {
                        OFFSET 1.4655 -1.808 0.9609
                        CHANNELS 3 Zrotation Xrotation Yrotation
                        End Site
                        {
                          OFFSET 0.0147 -0.0181 0.0096
                        }
                      }
                    }
                  }
                  JOINT lPinky1
                  {
                    OFFSET 4.9141 -1.269 0.3591
                    CHANNELS 3 Zrotation Xrotation Yrotation
                    JOINT lPinky2
                    {
                      OFFSET 3.1477 -1.685 0.8462
                      CHANNELS 3 Zrotation Xrotation Yrotation
                      JOINT lPinky2_End
                      {
                        OFFSET 0.8055 -1.585 0.7955
                        CHANNELS 3 Zrotation Xrotation Yrotation
                        End Site
                        {
                          OFFSET 0.0081 -0.0158 0.008
                        }
                      }
                    }
                  }
                }
              }
            }
          }
        }
        JOINT rCollar
        {
          OFFSET -1.7069 20.075 5.0056
          CHANNELS 3 Zrotation Xrotation Yrotation
          JOINT rShldr
          {
            OFFSET -13.6458 -0.047 -4.849
            CHANNELS 3 Zrotation Xrotation Yrotation
            JOINT rForeArm
            {
              OFFSET -28.3255 -0.9759 2.2888
              CHANNELS 3 Zrotation Xrotation Yrotation
              JOINT rHand
              {
                OFFSET -22.1583 -0.53 10.8316
                CHANNELS 3 Zrotation Xrotation Yrotation
                JOINT rThumb1
                {
                  OFFSET -0.786 0.112 2.5817
                  CHANNELS 3 Zrotation Xrotation Yrotation
                  JOINT rThumb2
                  {
                    OFFSET -0.3601 -0.878 4.2331
                    CHANNELS 3 Zrotation Xrotation Yrotation
                    JOINT rThumb2_End
                    {
                      OFFSET -1.8127 -1.216 2.2227
                      CHANNELS 3 Zrotation Xrotation Yrotation
                      End Site
                      {
                        OFFSET -0.0181 -0.0122 0.0222
                      }
                    }
                  }
                }
                JOINT rCarpal1
                {
                  OFFSET -0.9571 1.114 1.7695
                  CHANNELS 3 Zrotation Xrotation Yrotation
                  JOINT rIndex1
                  {
                    OFFSET -4.1246 0.487 4.1451
                    CHANNELS 3 Zrotation Xrotation Yrotation
                    JOINT rIndex2
                    {
                      OFFSET -3.4052 -1.454 2.7682
                      CHANNELS 3 Zrotation Xrotation Yrotation
                      JOINT rIndex2_End
                      {
                        OFFSET -1.4531 -1.795 1.2713
                        CHANNELS 3 Zrotation Xrotation Yrotation
                        End Site
                        {
                          OFFSET -0.0145 -0.018 0.0127
                        }
                      }
                    }
                  }
                  JOINT rMid1
                  {
                    OFFSET -5.6954 0.21 2.1184
                    CHANNELS 3 Zrotation Xrotation Yrotation
                    JOINT rMid2
                    {
                      OFFSET -3.9766 -1.54 2.3863
                      CHANNELS 3 Zrotation Xrotation Yrotation
                      JOINT rMid2_End
                      {
                        OFFSET -1.4042 -1.926 1.125
                        CHANNELS 3 Zrotation Xrotation Yrotation
                        End Site
                        {
                          OFFSET -0.014 -0.0193 0.0113
                        }
                      }
                    }
                  }
                }
                JOINT rCarpal2
                {
                  OFFSET -2.0956 0.66 -0.3894
                  CHANNELS 3 Zrotation Xrotation Yrotation
                  JOINT rRing1
                  {
                    OFFSET -5.0395 -0.09 2.4971
                    CHANNELS 3 Zrotation Xrotation Yrotation
                    JOINT rRing2
                    {
                      OFFSET -3.7921 -1.552 1.4806
                      CHANNELS 3 Zrotation Xrotation Yrotation
                      JOINT rRing2_End
                      {
                        OFFSET -1.4655 -1.808 0.9609
                        CHANNELS 3 Zrotation Xrotation Yrotation
                        End Site
                        {
                          OFFSET -0.0147 -0.0181 0.0096
                        }
                      }
                    }
                  }
                  JOINT rPinky1
                  {
                    OFFSET -4.9141 -1.269 0.3592
                    CHANNELS 3 Zrotation Xrotation Yrotation
                    JOINT rPinky2
                    {
                      OFFSET -3.1477 -1.685 0.8462
                      CHANNELS 3 Zrotation Xrotation Yrotation
                      JOINT rPinky2_End
                      {
                        OFFSET -0.8055 -1.585 0.7955
                        CHANNELS 3 Zrotation Xrotation Yrotation
                        End Site
                        {
                          OFFSET -0.0081 -0.0158 0.008
                        }
                      }
                    }
                  }
                }
              }
            }
          }
        }
      }
    }
  }
  JOINT lThigh
  {
    OFFSET 8.367 -8.2066 0.5982
    CHANNELS 3 Zrotation Xrotation Yrotation
    JOINT lShin
    {
      OFFSET 2.1923 -43.463 -0.4932
      CHANNELS 3 Zrotation Xrotation Yrotation
      JOINT lFoot
      {
        OFFSET 0.7333 -45.8593 -2.6451
        CHANNELS 3 Zrotation Xrotation Yrotation
        End Site
        {
          OFFSET 2.6618 -4.2699 12.3931
        }
      }
    }
  }
  JOINT rThigh
  {
    OFFSET -8.367 -8.2066 0.5982
    CHANNELS 3 Zrotation Xrotation Yrotation
    JOINT rShin
    {
      OFFSET -2.1923 -43.463 -0.4931
      CHANNELS 3 Zrotation Xrotation Yrotation
      JOINT rFoot
      {
        OFFSET -0.7333 -45.8593 -2.6451
        CHANNELS 3 Zrotation Xrotation Yrotation
        End Site
        {
          OFFSET -2.6618 -4.2699 12.3931
        }
      }
    }
  }
}
MOTION
Frames:	4
Frame Time:	0.0333333
-1.15044 3.10906 -33.4841 179.994 88.9936 7.52443e-009 -0.034956 1.69086 -0.279261 -0.0617027 3.38187 -0.557853 -0.0617027 3.38185 -0.557853 2.92118e-005 43.9985 -3.32905e-005 1.29313e-006 -79.3071 1.53157e-006 -15.6015 -4.00421 21.7206 0.32588 0.379741 -72.6103 -19.2051 -5.09192 -38.4416 -45.9657 -20.0616 -36.577 1.55052e-014 0 6.36111e-015 6.36111e-015 -4.77083e-015 -0 5.96354e-015 -3.18055e-015 1.59028e-015 1.55052e-014 1.59028e-015 6.36111e-015 5.1684e-015 1.59028e-015 7.95139e-015 5.1684e-015 -3.18055e-015 -1.59028e-015 1.59028e-015 0 -0 5.1684e-015 1.59028e-015 7.95139e-015 5.1684e-015 -3.18055e-015 -1.59028e-015 1.59028e-015 0 -0 1.55052e-014 1.59028e-015 6.36111e-015 5.1684e-015 1.59028e-015 7.95139e-015 5.1684e-015 -3.18055e-015 -1.59028e-015 1.59028e-015 0 -0 5.1684e-015 1.59028e-015 7.95139e-015 5.1684e-015 -3.18055e-015 -1.59028e-015 1.59028e-015 0 -0 15.5409 -4.25315 -21.7003 -0.307719 0.580213 73.1636 17.6519 -6.58641 36.896 46.7315 -20.2494 35.8682 1.07344e-014 1.59028e-015 -0 9.14409e-015 0 3.18055e-015 7.95139e-015 -3.18055e-015 9.54166e-015 -1.19271e-015 1.59028e-015 -3.18055e-015 7.55382e-015 -3.18055e-015 9.54166e-015 1.11319e-014 3.18055e-015 6.36111e-015 1.66979e-014 1.59028e-015 9.54166e-015 7.55382e-015 -3.18055e-015 9.54166e-015 1.11319e-014 3.18055e-015 6.36111e-015 1.66979e-014 1.59028e-015 9.54166e-015 -1.19271e-015 1.59028e-015 -3.18055e-015 7.55382e-015 -3.18055e-015 9.54166e-015 1.11319e-014 3.18055e-015 6.36111e-015 1.66979e-014 1.59028e-015 9.54166e-015 7.55382e-015 -3.18055e-015 9.54166e-015 1.11319e-014 3.18055e-015 6.36111e-015 1.66979e-014 1.59028e-015 9.54166e-015 41.6338 -28.2479 34.5131 21.1071 59.5142 -21.3949 40.789 51.1622 -39.1939 -41.6416 -28.246 -34.549 -21.1689 59.5046 21.438 -40.8164 51.1214 39.2261 
-1.15044 3.10906 -33.4841 179.994 88.9936 7.52443e-009 -0.0342603 1.5742 -0.279142 -0.0608792 3.14845 -0.557658 -0.0608794 3.14848 -0.557658 2.65349e-005 43.9984 -1.64951e-005 -3.0503e-007 -77.1594 -6.07037e-007 -15.8191 -3.60611 21.4947 0.325871 0.379726 -72.6103 -19.0694 -5.2844 -37.794 -46.1796 -19.7118 -36.5963 -2.99686e-006 1.71187e-006 -5.59158e-007 -1.28888e-007 -7.97548e-007 2.73589e-007 -2.93242e-006 2.11065e-006 -6.95953e-007 3.18055e-015 1.59028e-015 1.59028e-015 -2.99686e-006 1.71187e-006 -5.59158e-007 -1.28888e-007 -7.97548e-007 2.73589e-007 -2.93242e-006 2.11065e-006 -6.95953e-007 -2.99686e-006 1.71187e-006 -5.59158e-007 -1.28888e-007 -7.97548e-007 2.73589e-007 -2.93242e-006 2.11065e-006 -6.95953e-007 3.18055e-015 1.59028e-015 1.59028e-015 -2.99686e-006 1.71187e-006 -5.59158e-007 -1.28888e-007 -7.97548e-007 2.73589e-007 -2.93242e-006 2.11065e-006 -6.95953e-007 -2.99686e-006 1.71187e-006 -5.59158e-007 -1.28888e-007 -7.97548e-007 2.73589e-007 -2.93242e-006 2.11065e-006 -6.95953e-007 15.7576 -3.86369 -21.4595 -0.30772 0.580215 73.1636 17.5037 -6.75909 36.2575 46.9355 -19.9011 35.8585 -4.77083e-015 6.36111e-015 -0 2.365e-006 1.10412e-006 -1.62272e-007 7.95139e-016 6.36111e-015 -3.18055e-015 -5.1684e-015 3.18055e-015 3.18055e-015 2.64834e-031 -4.77083e-015 3.18055e-015 2.365e-006 1.10412e-006 -1.62272e-007 -3.57812e-015 3.18055e-015 -0 2.64834e-031 -4.77083e-015 3.18055e-015 2.365e-006 1.10412e-006 -1.62272e-007 -3.57812e-015 3.18055e-015 -0 -5.1684e-015 3.18055e-015 3.18055e-015 2.64834e-031 -4.77083e-015 3.18055e-015 2.365e-006 1.10412e-006 -1.62272e-007 -3.57812e-015 3.18055e-015 -0 2.64834e-031 -4.77083e-015 3.18055e-015 2.365e-006 1.10412e-006 -1.62272e-007 -3.57812e-015 3.18055e-015 -0 41.6338 -28.2479 34.5131 21.1071 59.5142 -21.3949 40.789 51.1622 -39.1939 -41.6416 -28.246 -34.549 -21.1689 59.5046 21.438 -40.8164 51.1214 39.2261 
-1.15044 3.10906 -33.4841 179.994 88.9936 7.52443e-009 -0.033633 1.46948 -0.279048 -0.060134 2.93909 -0.557507 -0.0601339 2.93909 -0.557507 3.80315e-005 43.9983 -3.03797e-005 -2.13299e-007 -75.2226 -2.2773e-007 -16.013 -3.24825 21.2935 0.325873 0.379736 -72.6103 -18.9458 -5.45547 -37.2124 -46.3708 -19.398 -36.6122 1.98785e-015 -1.59028e-015 1.59028e-015 2.99706e-006 -1.71158e-006 5.61476e-007 3.97569e-016 -1.59028e-015 1.59028e-015 -1.98785e-015 3.18055e-015 3.18055e-015 -2.38542e-015 0 1.59028e-015 2.99706e-006 -1.71158e-006 5.61476e-007 4.77083e-015 -1.59028e-015 3.18055e-015 -2.38542e-015 0 1.59028e-015 2.99706e-006 -1.71158e-006 5.61476e-007 4.77083e-015 -1.59028e-015 3.18055e-015 -1.98785e-015 3.18055e-015 3.18055e-015 -2.38542e-015 0 1.59028e-015 2.99706e-006 -1.71158e-006 5.61476e-007 4.77083e-015 -1.59028e-015 3.18055e-015 -2.38542e-015 0 1.59028e-015 2.99706e-006 -1.71158e-006 5.61476e-007 4.77083e-015 -1.59028e-015 3.18055e-015 15.9505 -3.51358 -21.245 -0.307721 0.580223 73.1636 17.3691 -6.91228 35.6842 47.1181 -19.5887 35.8484 -2.64834e-031 4.77083e-015 3.18055e-015 -1.07344e-014 -1.59028e-015 -3.18055e-015 5.96354e-015 1.59028e-015 -3.18055e-015 -1.76556e-031 3.18055e-015 3.18055e-015 -5.56597e-015 1.59028e-015 3.18055e-015 1.98785e-015 1.59028e-015 -3.18055e-015 2.38542e-015 4.77083e-015 -0 -5.56597e-015 1.59028e-015 3.18055e-015 1.98785e-015 1.59028e-015 -3.18055e-015 2.38542e-015 4.77083e-015 -0 -1.76556e-031 3.18055e-015 3.18055e-015 -5.56597e-015 1.59028e-015 3.18055e-015 1.98785e-015 1.59028e-015 -3.18055e-015 2.38542e-015 4.77083e-015 -0 -5.56597e-015 1.59028e-015 3.18055e-015 1.98785e-015 1.59028e-015 -3.18055e-015 2.38542e-015 4.77083e-015 -0 41.6338 -28.2479 34.5131 21.1071 59.5142 -21.3949 40.789 51.1622 -39.1939 -41.6416 -28.246 -34.549 -21.1689 59.5046 21.438 -40.8164 51.1214 39.2261 
-1.15044 3.10906 -33.4841 179.994 88.9936 7.52443e-009 -0.0330039 1.36475 -0.278967 -0.059384 2.72963 -0.557385 -0.0593839 2.72961 -0.557385 1.8627e-005 43.9983 -2.38355e-005 -3.33047e-007 -73.2773 -4.94617e-007 -16.2056 -2.8896 21.0935 0.325863 0.379729 -72.6103 -18.8204 -5.62535 -36.6301 -46.5616 -19.0841 -36.6269 1.15295e-014 -3.18055e-015 -0 -1.06721e-006 6.13362e-007 -7.20976e-007 1.19595e-006 1.84229e-007 4.47612e-007 1.15295e-014 -3.18055e-015 -0 7.95139e-016 1.59028e-015 7.95139e-015 -1.06721e-006 6.13362e-007 -7.20976e-007 1.19595e-006 1.84229e-007 4.47612e-007 7.95139e-016 1.59028e-015 7.95139e-015 -1.06721e-006 6.13362e-007 -7.20976e-007 1.19595e-006 1.84229e-007 4.47612e-007 1.15295e-014 -3.18055e-015 -0 7.95139e-016 1.59028e-015 7.95139e-015 -1.06721e-006 6.13362e-007 -7.20976e-007 1.19595e-006 1.84229e-007 4.47612e-007 7.95139e-016 1.59028e-015 7.95139e-015 -1.06721e-006 6.13362e-007 -7.20976e-007 1.19595e-006 1.84229e-007 4.47612e-007 16.142 -3.16263 -21.0317 -0.307719 0.580224 73.1636 17.2329 -7.06417 35.11 47.3004 -19.2763 35.8373 -9.14409e-015 4.77083e-015 -3.18055e-015 6.14323e-006 1.88763e-006 6.02197e-007 4.37326e-015 4.77083e-015 3.18055e-015 -2.78299e-015 3.18055e-015 -0 -1.03368e-014 1.59028e-015 3.18055e-015 6.14323e-006 1.88763e-006 6.02197e-007 -9.93923e-015 3.18055e-015 3.18055e-015 -1.03368e-014 1.59028e-015 3.18055e-015 6.14323e-006 1.88763e-006 6.02197e-007 -9.93923e-015 3.18055e-015 3.18055e-015 -2.78299e-015 3.18055e-015 -0 -1.03368e-014 1.59028e-015 3.18055e-015 6.14323e-006 1.88763e-006 6.02197e-007 -9.93923e-015 3.18055e-015 3.18055e-015 -1.03368e-014 1.59028e-015 3.18055e-015 6.14323e-006 1.88763e-006 6.02197e-007 -9.93923e-015 3.18055e-015 3.18055e-015 41.6338 -28.2479 34.5131 21.1071 59.5142 -21.3949 40.789 51.1622 -39.1939 -41.6416 -28.246 -34.549 -21.1689 59.5046 21.438 -40.8164 51.1214 39.2261 
